<svg id="Layer_1" data-name="Layer 1" xmlns="http://www.w3.org/2000/svg"
    viewBox="0 0 1277.48757 1119.57903">
    <path
        d="M1606.4826,1370.23063c10.658,18.429-2.61008,41.63862-23.78117,41.56937h-7.25035l-46.11224-.1385-54.74019-.20784h0l-46.54724-.1385-54.37767-.20784h0l-46.90976-.13849-54.01515-.20784-47.27228-.1385-53.65263-.20784-47.6348-.1385-53.29011-.20784-47.99732-.13849-52.85511-.20784h0l-48.43236-.1385-52.49259-.20784-48.79489-.13849-52.13007-.20785-49.22993-.13849-51.76756-.20784,25.81122-44.54855,25.01369-43.23216,25.52122-44.06352,25.30372-43.71711h0l25.2312-43.57857,25.59371-44.20214,24.9412-43.09355,25.88374-44.68707,24.65118-42.53934,26.17373-45.24137,24.43354-41.985,26.46376-45.72631L996.29224,840.499l26.75375-46.2113,22.7661-39.28306a3.55975,3.55975,0,0,0,0-3.60269l-26.10132-45.10271-20.011-34.50254a3.98115,3.98115,0,0,0-6.81535,0l-19.866,34.29473h0l-27.26128,47.112-23.63611,40.738-26.9713,46.5577-23.85365,41.223-26.68126,46.07272L820.47123,969.572,794.08,1015.09039h0l-24.50616,42.2622-26.10124,45.03348h0l-24.79619,42.74714-25.81121,44.54855L667.779,1232.98319l-25.52122,43.99425-25.37621,43.78637-25.23119,43.50931h0l-24.36119,42.2622a4.05911,4.05911,0,0,1-3.40767,1.93994l-47.63485-.1385-50.97-.20784-50.31746-.13849h-7.32286c-19.21344-.06925-31.104-21.0618-21.46109-37.75881l3.48017-5.95826,25.59372-44.20214,24.94118-43.09354,25.88375-44.68708,24.65117-42.60861L516.899,1144.51l24.36117-42.05431,26.46376-45.72631L591.79506,1015.16l26.75377-46.21126L642.33,927.86429,669.37373,881.168l23.49114-40.5994,27.33381-47.18122,23.20111-40.11446,27.62379-47.66621,22.91108-39.56017,27.91383-48.22046,22.62108-39.07522,28.20386-48.70544,22.33106-38.59025,28.49385-49.19042,22.04106-38.036,28.78388-49.74469h0c9.42545-16.35062,34.07666-16.35064,43.50214,0l.07248.13856,28.71143,49.60608,22.33116,38.52092,28.20394,48.77469,22.83865,39.3523,27.76894,47.874h0l23.27365,40.18369L1198.287,665.977h0l23.78123,41.01509,26.75387,46.21126,24.21624,41.91575,26.31886,45.37985,24.72373,42.67784,25.81128,44.61773,25.23131,43.50927,25.37628,43.71707,25.73879,44.4099,24.86879,42.88571,26.1738,45.172-52.275-.13849-49.01239-.20784-51.91252-.1385-47.12731-.13849a3.96659,3.96659,0,0,1-3.40764-1.93994l-24.72372-42.60857-25.23131-43.57854-25.30379-43.71707-25.7388-44.40989-21.46107-36.99672a3.98118,3.98118,0,0,0-6.81535,0l-21.316,36.85814-25.81121,44.54855-25.08618,43.23216-25.52118,44.06352-25.37621,43.71711-25.23119,43.50931h0L973.52669,1228.272a3.73173,3.73173,0,0,0,3.40768,5.54257l44.73465.1385,49.59245.1385,51.69507.20784,49.22993.13849,52.13007.20784,48.79493.1385,52.49259.20784,48.43241.13849,52.85511.20785,48.06989.13849,50.97.13849a3.87831,3.87831,0,0,1,3.40764,1.93994l22.76616,39.283,27.18887,46.904,23.41872,40.39158Z"
        transform="translate(-357.75621 -317.22112)"
        style="fill:#000;stroke:#000;stroke-miterlimit:10;stroke-width:50px" />
</svg>